<?xml version="1.0" standalone="no"?>
<!DOCTYPE svg PUBLIC "-//W3C//DTD SVG 20010904//EN"
 "http://www.w3.org/TR/2001/REC-SVG-20010904/DTD/svg10.dtd">
<svg version="1.0" xmlns="http://www.w3.org/2000/svg"
 width="1328.000000pt" height="1286.000000pt" viewBox="0 0 1328.000000 1286.000000"
 preserveAspectRatio="xMidYMid meet">

<g transform="translate(0.000000,1286.000000) scale(0.100000,-0.100000)"
fill="#000000" stroke="none">
<path d="M6585 11886 c-474 -142 -609 -186 -631 -207 -30 -29 -37 -54 -64
-266 l-23 -173 -79 0 c-119 0 -168 -28 -168 -95 0 -39 18 -65 55 -81 50 -20
550 -20 600 0 63 26 75 97 26 147 -28 27 -34 29 -111 29 -73 0 -81 2 -76 18 2
9 10 63 17 119 7 56 15 106 19 112 6 10 421 143 428 137 1 -2 -11 -111 -27
-242 -60 -475 -120 -952 -137 -1104 -10 -85 -18 -156 -19 -158 -2 -3 -447 107
-452 111 -2 3 26 246 32 275 5 21 9 22 119 22 l114 0 26 31 c33 38 33 79 2
116 l-24 28 -184 5 c-126 4 -192 2 -213 -6 -61 -23 -65 -34 -102 -309 -19
-141 -32 -267 -29 -279 3 -13 15 -35 26 -49 25 -31 43 -37 450 -142 228 -59
323 -79 417 -87 67 -6 127 -14 132 -18 17 -10 -42 -296 -60 -293 -48 8 -727
127 -787 138 l-73 14 -192 -55 c-106 -31 -255 -74 -332 -96 -111 -31 -145 -45
-166 -67 -29 -31 -28 -27 -209 -786 -50 -209 -120 -499 -155 -645 -35 -146
-105 -438 -155 -650 -51 -212 -116 -482 -145 -600 -99 -397 -136 -569 -129
-596 4 -16 123 -147 299 -328 160 -166 320 -332 355 -371 35 -38 75 -76 89
-84 21 -12 78 -13 326 -8 589 13 1081 32 1710 67 193 11 480 27 638 35 304 16
331 21 361 68 8 12 44 144 80 292 79 329 286 1173 395 1615 44 179 116 476
161 660 45 184 110 453 146 597 35 144 64 271 64 283 0 37 -31 90 -63 107 -30
15 -244 57 -837 162 -515 92 -913 163 -1012 180 -53 9 -100 20 -104 23 -5 5
43 305 51 315 2 4 934 -83 1847 -172 143 -14 160 -14 197 1 69 27 70 31 112
429 37 348 87 810 131 1218 20 185 20 200 5 232 -32 67 10 57 -717 159 -217
31 -573 81 -790 111 -718 101 -1035 145 -1045 144 -5 0 -59 -15 -120 -33z
m945 -326 c1010 -142 1473 -209 1478 -214 5 -6 -60 -650 -131 -1281 l-22 -200
-25 2 c-37 4 -533 51 -710 68 -153 15 -466 44 -1135 106 -187 17 -342 33 -345
36 -4 4 2 57 111 943 87 714 75 642 107 636 15 -3 317 -46 672 -96z m-1115
-2240 c551 -100 698 -126 1030 -185 143 -25 409 -73 590 -106 182 -33 395 -71
475 -85 79 -14 146 -26 147 -27 1 -2 -2 -21 -8 -42 -5 -22 -47 -200 -93 -395
-47 -195 -128 -528 -180 -740 -52 -212 -167 -680 -255 -1040 -89 -360 -178
-721 -198 -802 l-38 -148 -40 -4 c-59 -8 -1135 -66 -1490 -81 -305 -12 -1088
-35 -1092 -31 -3 2 19 132 47 288 28 155 69 384 90 508 21 124 77 446 124 715
47 270 101 580 120 690 19 110 48 277 65 370 36 203 174 1009 191 1115 15 90
16 93 44 86 11 -2 224 -41 471 -86z m-791 -182 c-23 -139 -79 -460 -124 -713
-45 -253 -126 -716 -180 -1030 -102 -590 -221 -1274 -261 -1499 l-23 -129
-214 219 c-272 280 -263 269 -252 319 6 22 68 281 139 575 146 602 171 704
236 980 92 392 317 1326 332 1378 10 36 20 52 31 53 9 0 89 22 177 49 88 27
165 49 171 49 7 1 -5 -90 -32 -251z"/>
<path d="M7253 11086 c-51 -23 -64 -54 -89 -224 -31 -208 -31 -215 9 -258 61
-67 169 -51 201 29 7 17 23 104 35 193 20 146 21 164 8 197 -27 62 -101 91
-164 63z"/>
<path d="M8468 10924 c-15 -8 -34 -27 -42 -43 -18 -33 -61 -360 -52 -394 10
-40 45 -76 86 -87 51 -14 114 10 136 52 8 16 26 108 39 205 21 155 22 180 10
210 -26 63 -114 91 -177 57z"/>
<path d="M6435 8422 c-57 -35 -45 13 -166 -667 -16 -93 -46 -253 -65 -355 -84
-444 -156 -838 -160 -880 -6 -55 20 -103 70 -126 37 -18 -27 -23 736 56 331
34 624 68 656 76 12 3 33 18 47 32 27 28 53 117 242 807 41 149 101 367 134
485 63 220 70 267 48 309 -27 53 -50 60 -348 107 -706 110 -1126 174 -1152
174 -7 0 -25 -8 -42 -18z m480 -292 c149 -22 389 -59 535 -83 247 -40 265 -44
262 -62 -4 -25 -124 -462 -247 -900 l-92 -330 -49 -7 c-27 -4 -236 -27 -464
-52 -228 -25 -443 -50 -478 -54 -34 -5 -64 -7 -66 -5 -4 4 10 85 110 621 76
411 164 900 164 915 0 5 12 6 28 3 15 -3 149 -24 297 -46z"/>
<path d="M4719 11721 c-20 -20 -29 -39 -29 -61 0 -22 9 -41 29 -61 l29 -29
335 0 c318 0 336 1 360 20 31 25 42 65 26 102 -23 56 -37 58 -394 58 l-327 0
-29 -29z"/>
<path d="M3210 11223 c-63 -23 -81 -104 -34 -148 l27 -25 1044 0 1045 0 29 29
c20 20 29 39 29 61 0 22 -9 41 -29 61 l-29 29 -1034 -1 c-568 0 -1040 -3
-1048 -6z"/>
<path d="M4498 10695 c-38 -21 -54 -75 -33 -114 8 -17 24 -35 34 -41 13 -6
180 -10 469 -10 l449 0 20 23 c11 12 24 32 27 44 10 32 -18 91 -49 103 -16 6
-195 10 -458 10 -358 -1 -437 -3 -459 -15z"/>
<path d="M4837 10200 c-268 -5 -269 -5 -288 -29 -27 -33 -25 -86 6 -116 l24
-25 323 0 c340 1 342 1 366 47 19 34 14 60 -16 94 -33 37 -28 36 -415 29z"/>
<path d="M4365 9339 c-132 -16 -501 -58 -820 -94 -555 -62 -580 -66 -603 -88
-22 -23 -122 -175 -410 -622 -60 -93 -238 -368 -396 -609 l-286 -439 -241
-137 c-247 -139 -268 -156 -269 -214 0 -40 118 -734 129 -754 15 -28 46 -52
82 -62 47 -14 111 18 134 67 17 35 16 43 -36 356 -40 234 -51 321 -42 324 7 2
78 42 159 89 82 47 153 83 159 82 6 -2 119 -83 252 -181 l241 -179 41 -107 42
-108 -63 -60 c-35 -33 -105 -98 -156 -144 -100 -89 -122 -120 -122 -169 0
-100 115 -155 195 -92 80 63 392 358 404 382 19 38 11 68 -63 255 l-63 160 57
85 c31 47 146 213 254 370 658 954 586 856 638 863 152 18 969 152 995 162 91
38 86 176 -8 215 -34 15 -75 9 -716 -90 l-302 -46 -141 204 c-78 112 -139 206
-137 209 5 4 127 19 967 113 245 28 457 55 473 61 41 17 67 60 67 111 0 74
-51 119 -132 117 -24 -1 -151 -14 -283 -30z m-1182 -687 c75 -114 137 -213
137 -219 0 -7 -35 -63 -78 -125 -391 -564 -730 -1057 -760 -1105 -15 -23 -31
-41 -37 -39 -5 2 -85 60 -177 130 l-168 127 24 37 c42 67 131 204 257 397 69
105 244 373 389 597 146 225 267 408 270 408 3 0 67 -94 143 -208z"/>
<path d="M1557 9232 c-44 -46 -34 -108 23 -137 42 -22 833 -22 885 -1 59 25
75 97 30 141 l-24 25 -444 0 -443 0 -27 -28z"/>
<path d="M1011 8648 c-25 -9 -61 -57 -61 -80 0 -29 30 -75 57 -87 16 -8 191
-11 542 -11 l518 0 34 23 c45 30 53 90 17 131 l-23 27 -533 2 c-293 1 -541 -1
-551 -5z"/>
<path d="M9112 8615 c-58 -49 -66 -126 -19 -177 13 -14 55 -35 93 -48 70 -23
184 -66 564 -210 118 -45 287 -108 375 -140 88 -32 173 -63 188 -69 l28 -11
-75 -147 c-41 -82 -91 -178 -111 -215 l-35 -66 -313 152 c-465 227 -761 366
-780 366 -36 0 -87 -30 -107 -62 -24 -40 -25 -69 -4 -114 15 -31 46 -49 378
-211 198 -98 474 -234 611 -303 l250 -125 198 -275 c563 -781 723 -1005 731
-1024 6 -16 -10 -59 -73 -190 -55 -115 -81 -181 -81 -205 0 -31 15 -54 100
-159 54 -68 130 -164 169 -215 104 -139 131 -157 203 -136 54 14 88 60 88 117
0 42 -6 55 -63 127 -35 44 -100 128 -144 187 l-82 106 46 105 c45 103 47 106
92 123 114 43 426 209 588 314 20 13 33 9 156 -50 l134 -65 7 -59 c3 -32 6
-129 7 -215 0 -86 4 -220 7 -298 7 -131 9 -144 32 -168 13 -14 41 -30 61 -36
31 -10 43 -9 75 7 21 11 46 31 57 45 18 26 19 41 10 432 -8 386 -9 407 -29
434 -22 30 -40 40 -284 159 l-155 75 -355 444 c-195 245 -422 530 -505 633
-226 285 -475 591 -522 642 -23 25 -59 52 -80 59 -79 28 -321 117 -678 251
-718 268 -697 262 -753 215z m1534 -940 c59 -70 431 -532 828 -1029 l279 -350
-24 -19 c-52 -42 -416 -236 -423 -225 -35 54 -400 563 -639 893 -176 242 -322
448 -325 457 -3 15 141 308 186 377 l16 24 26 -34 c14 -18 48 -60 76 -94z"/>
<path d="M1268 8074 c-50 -27 -64 -92 -29 -135 19 -24 23 -24 233 -29 226 -6
266 -1 287 38 25 48 8 102 -39 127 -42 22 -412 21 -452 -1z"/>
<path d="M8169 5367 c-45 -31 -66 -85 -51 -136 10 -31 47 -69 199 -207 286
-257 544 -496 541 -500 -3 -2 -469 -88 -873 -161 -73 -13 -94 -21 -113 -42
-13 -14 -99 -204 -193 -421 -707 -1642 -959 -2244 -959 -2292 0 -39 30 -92 61
-109 30 -16 116 -18 1253 -29 916 -10 971 -9 1004 7 20 10 44 30 55 44 37 51
28 81 -95 335 -165 338 -260 546 -261 569 -1 11 40 182 91 380 240 944 412
1632 412 1653 0 55 -27 82 -495 507 -126 115 -277 252 -335 306 -58 53 -115
101 -127 108 -34 17 -77 13 -114 -12z m777 -1094 c-3 -10 -95 -377 -205 -815
-110 -438 -207 -822 -216 -853 l-17 -56 -56 6 c-65 6 -347 19 -767 36 -159 6
-291 13 -293 14 -2 2 46 117 106 257 60 139 207 481 326 759 l218 506 236 43
c130 23 325 60 432 80 232 45 243 46 236 23z m-1311 -1923 c116 -6 358 -17
539 -25 181 -8 331 -16 332 -18 8 -8 284 -590 284 -599 0 -6 -16 -7 -37 -4
-21 3 -414 9 -873 13 -459 4 -839 7 -845 8 -15 1 -9 21 46 150 28 66 82 199
121 295 38 96 72 178 75 182 6 10 103 10 358 -2z"/>
<path d="M8115 3496 c-49 -49 -42 -115 16 -154 43 -30 84 -24 122 18 19 21 27
41 27 66 0 81 -108 127 -165 70z"/>
<path d="M7959 3021 c-48 -49 -38 -125 21 -156 42 -22 74 -19 109 11 67 56 24
174 -64 174 -27 0 -44 -8 -66 -29z"/>
<path d="M4604 5348 l-35 -33 -39 -270 c-22 -148 -54 -363 -71 -478 -25 -174
-29 -213 -19 -243 14 -43 61 -74 110 -74 42 0 96 31 110 62 6 13 42 234 80
492 62 420 68 472 56 501 -34 80 -128 101 -192 43z"/>
<path d="M7130 5302 c-48 -24 -75 -76 -66 -127 9 -46 0 -37 381 -390 340 -316
326 -305 384 -305 26 0 56 7 69 16 50 35 67 116 34 165 -9 14 -107 109 -217
210 -110 101 -260 239 -333 307 -163 150 -182 159 -252 124z"/>
<path d="M5410 5213 c-21 -11 -42 -32 -51 -53 -11 -23 -44 -254 -99 -690 -88
-712 -99 -790 -110 -790 -8 0 -61 29 -365 202 -341 194 -337 192 -399 163 -62
-30 -84 -110 -47 -171 20 -33 33 -41 444 -274 225 -127 287 -166 282 -179 -7
-19 -49 -86 -360 -576 -133 -209 -286 -451 -341 -539 l-99 -158 -105 7 c-456
30 -757 42 -786 30 -88 -36 -102 -162 -23 -209 32 -19 21 -18 504 -47 187 -11
341 -21 342 -23 4 -4 24 -208 21 -211 -6 -6 -1369 12 -1374 18 -3 3 31 119 76
259 l82 254 231 245 c126 134 325 345 441 469 116 123 292 309 391 413 185
194 225 245 225 285 0 102 -129 165 -201 98 -24 -22 -329 -345 -960 -1017
l-334 -356 -129 -382 c-134 -398 -136 -411 -101 -465 37 -56 8 -54 955 -61
l875 -7 33 21 c63 40 66 64 36 295 l-27 204 190 298 c105 165 214 337 243 384
29 47 153 243 275 435 122 193 225 355 228 361 4 6 20 116 36 245 59 467 171
1355 175 1390 11 101 -88 176 -174 132z"/>
<path d="M2725 5058 c-52 -30 -62 -102 -20 -143 l24 -25 726 0 c501 0 733 3
747 11 31 17 50 71 37 107 -22 65 15 62 -776 62 -521 -1 -723 -4 -738 -12z"/>
<path d="M2310 4543 c-24 -9 -52 -36 -61 -61 -11 -29 11 -86 39 -101 14 -8
252 -11 770 -11 l749 0 20 23 c29 31 37 64 22 98 -25 61 2 59 -796 58 -400 0
-735 -3 -743 -6z"/>
<path d="M1719 4011 c-37 -37 -38 -79 -3 -120 l26 -31 547 0 548 0 20 23 c29
32 35 56 22 94 -21 64 -10 63 -599 63 l-532 0 -29 -29z"/>
<path d="M2456 3484 c-35 -35 -35 -86 -1 -119 13 -14 30 -25 37 -25 7 0 195
-1 416 -2 l404 -3 24 28 c13 16 24 39 24 53 0 32 -25 80 -45 88 -9 3 -200 6
-424 6 l-408 0 -27 -26z"/>
<path d="M4184 3096 c-45 -45 -47 -95 -5 -137 63 -62 171 -20 171 66 0 50 -53
105 -100 105 -23 0 -41 -9 -66 -34z"/>
<path d="M3943 2732 c-30 -4 -70 -47 -78 -83 -8 -37 20 -89 59 -108 23 -10 37
-11 66 -2 118 35 76 212 -47 193z"/>
</g>
</svg>
